<svg xmlns="http://www.w3.org/2000/svg" version="1.1" xmlns:xlink="http://www.w3.org/1999/xlink" xmlns:svgjs="http://svgjs.dev/svgjs" viewBox="0 0 2400 800" opacity="0.26"><defs><linearGradient x1="50%" y1="0%" x2="50%" y2="100%" id="sssurf-grad"><stop stop-color="hsl(50, 98%, 60%)" stop-opacity="1" offset="0%"></stop><stop stop-color="hsl(50, 98%, 80%)" stop-opacity="1" offset="100%"></stop></linearGradient></defs><g fill="url(#sssurf-grad)" transform="matrix(1,0,0,1,5.82373046875,237.55632781982422)"><path d="M-10,10C75.41666666666666,13.958333333333332,231.25,35.041666666666664,400,29C568.75,22.958333333333336,633.3333333333333,-19.208333333333332,800,-19C966.6666666666667,-18.791666666666668,1033.3333333333333,26.458333333333332,1200,30C1366.6666666666667,33.541666666666664,1433.3333333333333,-0.3333333333333335,1600,-2C1766.6666666666667,-3.6666666666666665,1833.3333333333333,24.291666666666668,2000,22C2166.6666666666665,19.708333333333332,2264.5833333333335,-91.75,2400,-13C2535.4166666666665,65.75,3254.1666666666665,209.79166666666669,2650,400C2045.8333333333335,590.2083333333333,156.25,795.8333333333334,-500,900" transform="matrix(1,0,0,1,0,38)" opacity="0.05"></path><path d="M-10,10C75.41666666666666,13.958333333333332,231.25,35.041666666666664,400,29C568.75,22.958333333333336,633.3333333333333,-19.208333333333332,800,-19C966.6666666666667,-18.791666666666668,1033.3333333333333,26.458333333333332,1200,30C1366.6666666666667,33.541666666666664,1433.3333333333333,-0.3333333333333335,1600,-2C1766.6666666666667,-3.6666666666666665,1833.3333333333333,24.291666666666668,2000,22C2166.6666666666665,19.708333333333332,2264.5833333333335,-91.75,2400,-13C2535.4166666666665,65.75,3254.1666666666665,209.79166666666669,2650,400C2045.8333333333335,590.2083333333333,156.25,795.8333333333334,-500,900" transform="matrix(1,0,0,1,0,76)" opacity="0.24"></path><path d="M-10,10C75.41666666666666,13.958333333333332,231.25,35.041666666666664,400,29C568.75,22.958333333333336,633.3333333333333,-19.208333333333332,800,-19C966.6666666666667,-18.791666666666668,1033.3333333333333,26.458333333333332,1200,30C1366.6666666666667,33.541666666666664,1433.3333333333333,-0.3333333333333335,1600,-2C1766.6666666666667,-3.6666666666666665,1833.3333333333333,24.291666666666668,2000,22C2166.6666666666665,19.708333333333332,2264.5833333333335,-91.75,2400,-13C2535.4166666666665,65.75,3254.1666666666665,209.79166666666669,2650,400C2045.8333333333335,590.2083333333333,156.25,795.8333333333334,-500,900" transform="matrix(1,0,0,1,0,114)" opacity="0.43"></path><path d="M-10,10C75.41666666666666,13.958333333333332,231.25,35.041666666666664,400,29C568.75,22.958333333333336,633.3333333333333,-19.208333333333332,800,-19C966.6666666666667,-18.791666666666668,1033.3333333333333,26.458333333333332,1200,30C1366.6666666666667,33.541666666666664,1433.3333333333333,-0.3333333333333335,1600,-2C1766.6666666666667,-3.6666666666666665,1833.3333333333333,24.291666666666668,2000,22C2166.6666666666665,19.708333333333332,2264.5833333333335,-91.75,2400,-13C2535.4166666666665,65.75,3254.1666666666665,209.79166666666669,2650,400C2045.8333333333335,590.2083333333333,156.25,795.8333333333334,-500,900" transform="matrix(1,0,0,1,0,152)" opacity="0.62"></path><path d="M-10,10C75.41666666666666,13.958333333333332,231.25,35.041666666666664,400,29C568.75,22.958333333333336,633.3333333333333,-19.208333333333332,800,-19C966.6666666666667,-18.791666666666668,1033.3333333333333,26.458333333333332,1200,30C1366.6666666666667,33.541666666666664,1433.3333333333333,-0.3333333333333335,1600,-2C1766.6666666666667,-3.6666666666666665,1833.3333333333333,24.291666666666668,2000,22C2166.6666666666665,19.708333333333332,2264.5833333333335,-91.75,2400,-13C2535.4166666666665,65.75,3254.1666666666665,209.79166666666669,2650,400C2045.8333333333335,590.2083333333333,156.25,795.8333333333334,-500,900" transform="matrix(1,0,0,1,0,190)" opacity="0.81"></path><path d="M-10,10C75.41666666666666,13.958333333333332,231.25,35.041666666666664,400,29C568.75,22.958333333333336,633.3333333333333,-19.208333333333332,800,-19C966.6666666666667,-18.791666666666668,1033.3333333333333,26.458333333333332,1200,30C1366.6666666666667,33.541666666666664,1433.3333333333333,-0.3333333333333335,1600,-2C1766.6666666666667,-3.6666666666666665,1833.3333333333333,24.291666666666668,2000,22C2166.6666666666665,19.708333333333332,2264.5833333333335,-91.75,2400,-13C2535.4166666666665,65.75,3254.1666666666665,209.79166666666669,2650,400C2045.8333333333335,590.2083333333333,156.25,795.8333333333334,-500,900" transform="matrix(1,0,0,1,0,228)" opacity="1.00"></path></g></svg>